<svg xmlns="http://www.w3.org/2000/svg" fill="none" viewBox="0 0 2327 2961">
  <path fill="#FB3640" fill-rule="evenodd" d="M341.185 341.048C559.304 123.015 855.033.36376 1163.5 0c308.47.36376 604.2 123.015 822.32 341.048 218.12 218.033 340.82 513.645 341.18 821.992.36 251.86-81.94 496.89-234.29 697.5l-.1.32s-31.84 41.66-36.49 47.26l-197.06 232.32c-85.36-40.63-178.93-75.97-280.71-106-128.14-37.81-269.28-56.71-423.44-56.71-154.16 0-295.305 18.9-423.437 56.71-96.93 28.6-186.413 62.01-268.448 100.23l-191.717-226.02c-5.182-6.03-36.914-47.79-36.914-47.79C81.9734 1660.16-.36773 1415.02.00173 1163.04.36563 854.693 123.065 559.081 341.185 341.048ZM1617.95 2424.7l-454.45 535.76-458.538-540.57c21.466-7.75 43.797-15.5 66.993-23.25 113.157-37.81 240.805-56.71 382.955-56.71 142.07 0 269.68 18.9 382.84 56.71 27.99 9.35 54.72 18.7 80.2 28.06Zm-802.39-721.07c94.097 98.72 207.21 148.08 339.35 148.08 132.14 0 245.25-49.36 339.35-148.08 94.1-98.72 141.15-217.39 141.15-356.02h30.03c17.94.09 32.43-5.67 43.48-17.26 11.05-11.6 16.58-26.85 16.58-45.75.08-18.82-5.41-34.02-16.46-45.62-11.05-11.59-25.58-17.39-43.6-17.39h-30.03c0-94.52-22.03-179.58-66.07-255.198-44.05-75.614-102.11-135.476-174.18-179.584v119.723c.08 18.819-5.41 34.026-16.46 45.62-11.05 11.594-25.59 17.391-43.6 17.391-17.94.084-32.44-5.671-43.49-17.265-11.05-11.594-16.58-26.843-16.58-45.746V736.399c-18.01-6.217-37.03-10.922-57.05-14.115-20.03-3.192-41.05-4.789-63.07-4.789-22.02-.084-43.04 1.47-63.06 4.663-20.03 3.193-39.05 7.94-57.06 14.241v170.132c.08 18.819-5.41 34.026-16.46 45.62-11.05 11.594-25.587 17.391-43.606 17.391-17.938.084-32.433-5.671-43.485-17.265-11.051-11.594-16.577-26.843-16.577-45.746V786.808c-72.074 44.108-130.134 103.97-174.18 179.584-44.045 75.618-66.068 160.678-66.068 255.198h-30.031c-17.938-.08-32.433 5.67-43.485 17.26-11.051 11.6-16.577 26.85-16.577 45.75.08 18.82 5.606 34.03 16.577 45.62 10.972 11.6 25.467 17.39 43.485 17.39h30.031c0 138.63 47.049 257.3 141.146 356.02Z" clip-rule="evenodd"/>
</svg>